<svg width="24" height="25" viewBox="0 0 24 25" fill="none" xmlns="http://www.w3.org/2000/svg">
<path d="M15.7337 13.0827C15.9001 13.2281 16.06 13.3797 16.219 13.5332C16.2526 13.5643 16.2862 13.5955 16.3208 13.6277C17.6598 14.9023 18.5668 17.0321 18.666 18.8654C18.6788 19.8994 18.3726 20.7776 17.6633 21.5371C17.0005 22.1652 16.2374 22.4299 15.3333 22.4154C14.873 22.3919 14.439 22.2389 14.0018 22.1029C12.4578 21.6337 10.8744 21.8089 9.36427 22.3014C8.72277 22.4916 7.97409 22.4683 7.35963 22.205C7.31854 22.1881 7.27745 22.1711 7.23512 22.1536C6.92735 22.0135 6.67563 21.8174 6.42213 21.5957C6.39325 21.5713 6.36436 21.5468 6.33461 21.5217C5.68614 20.93 5.36799 20.0381 5.32594 19.1792C5.27488 17.1435 6.36953 15.0435 7.71943 13.5852C9.87452 11.3521 13.3346 11.058 15.7337 13.0827Z" fill="#E9EEFC"/>
<path d="M16.9456 3.65166C17.8295 4.28971 18.3266 5.27777 18.5002 6.34136C18.6802 7.64052 18.4848 9.01097 17.6956 10.0876C17.2706 10.6364 16.6849 11.0797 15.9847 11.1894C15.16 11.2418 14.5082 11.0688 13.8694 10.5243C13.035 9.74081 12.6383 8.58378 12.6011 7.45805C12.5772 6.26901 12.8461 5.00117 13.6878 4.11125C14.5688 3.19534 15.8538 2.94828 16.9456 3.65166Z" fill="#E9EEFC"/>
<path d="M9.66147 3.58098C10.5741 4.166 11.0557 5.09749 11.2962 6.12688C11.5649 7.38897 11.3631 8.77255 10.6869 9.87688C10.5583 10.0619 10.4199 10.229 10.265 10.3925C10.2328 10.4266 10.2007 10.4607 10.1676 10.4958C9.65898 10.9893 9.01947 11.21 8.32341 11.2064C7.61716 11.1892 6.9995 10.8504 6.51499 10.3456C5.6802 9.39728 5.38744 8.14458 5.44185 6.90373C5.51481 5.76347 5.90635 4.69235 6.73472 3.88567C7.57208 3.16606 8.70163 3.0484 9.66147 3.58098Z" fill="#E9EEFC"/>
<path d="M22.1856 9.61029C22.8061 10.0802 23.1604 10.7013 23.296 11.4706C23.3838 12.6785 23.1748 13.7567 22.3892 14.7063C21.9199 15.2315 21.2615 15.6583 20.545 15.6993C19.871 15.7215 19.3548 15.5591 18.837 15.121C18.3132 14.6273 18.0076 13.9128 17.9863 13.1915C17.9601 12.0447 18.2005 11.0128 18.9935 10.1506C19.8388 9.28878 21.1183 8.89982 22.1856 9.61029Z" fill="#E9EEFC"/>
<path d="M4.34409 9.60443C5.21974 10.2056 5.77865 11.0943 5.98007 12.1368C6.12624 13.1274 5.97901 14.0573 5.39182 14.8808C5.0944 15.2435 4.61258 15.5977 4.13846 15.681C3.2408 15.7511 2.55239 15.5477 1.85733 14.9603C1.31219 14.4547 0.993363 13.8178 0.796235 13.1113C0.783041 13.0647 0.783041 13.0647 0.769581 13.0171C0.690705 12.7084 0.686915 12.4062 0.687836 12.0888C0.686703 12.0115 0.686703 12.0115 0.685547 11.9327C0.685092 11.1592 0.937891 10.445 1.48178 9.8855C2.29046 9.142 3.39834 9.03646 4.34409 9.60443Z" fill="#E9EEFC"/>
</svg>
