<svg width="30" height="18" viewBox="0 0 30 18" fill="none" xmlns="http://www.w3.org/2000/svg">
<path d="M3.7607 0.662967C3.84187 0.662363 3.92304 0.661758 4.00667 0.661135C4.09728 0.661411 4.18789 0.661705 4.2785 0.662015C4.37434 0.661665 4.47019 0.661234 4.56603 0.660728C4.83009 0.659577 5.09414 0.659606 5.3582 0.659827C5.64272 0.659865 5.92723 0.658831 6.21175 0.657941C6.76942 0.656381 7.3271 0.655868 7.88477 0.655764C8.33793 0.655675 8.79109 0.65529 9.24425 0.654695C10.5282 0.653043 11.8121 0.652179 13.096 0.652319C13.1652 0.652327 13.2345 0.652334 13.3058 0.652342C13.4099 0.652353 13.4099 0.652353 13.516 0.652365C14.6401 0.652441 15.7643 0.650647 16.8884 0.648003C18.0418 0.645313 19.1952 0.644015 20.3486 0.644177C20.9965 0.64424 21.6444 0.643721 22.2923 0.641706C22.8439 0.640002 23.3954 0.639589 23.947 0.640864C24.2286 0.641478 24.5101 0.641481 24.7917 0.639861C25.0493 0.638393 25.3069 0.638647 25.5645 0.640289C25.6578 0.640578 25.7512 0.64023 25.8445 0.63919C26.5416 0.631933 26.5416 0.631933 26.7474 0.767434C26.8325 0.866407 26.8325 0.866407 26.9379 1.06209C26.9728 1.12057 27.0076 1.17905 27.0436 1.2393C27.0748 1.30054 27.1061 1.36178 27.1383 1.42488C27.1745 1.49523 27.2107 1.56558 27.248 1.63806C27.2866 1.71429 27.3251 1.79053 27.3637 1.86677C27.4043 1.94632 27.445 2.02586 27.4857 2.10538C27.9013 2.91897 28.3103 3.73605 28.716 4.55462C28.8003 4.72458 28.8854 4.89398 28.9725 5.06251C29.001 5.11772 29.0294 5.17293 29.0587 5.22981C29.0833 5.27666 29.1078 5.3235 29.1331 5.37176C29.2378 5.61602 29.2209 5.82906 29.1449 6.07771C29.03 6.23095 28.9236 6.29099 28.7504 6.37459C28.5819 6.38768 28.4295 6.39255 28.2621 6.38631C28.1972 6.38504 28.1972 6.38504 28.1309 6.38374C28.0249 6.38155 27.9189 6.37819 27.8129 6.37459C27.8131 6.4312 27.8132 6.48781 27.8134 6.54613C27.8176 7.92376 27.8207 9.30139 27.8226 10.679C27.8236 11.3452 27.8249 12.0115 27.827 12.6777C27.8289 13.2584 27.8301 13.8391 27.8305 14.4197C27.8308 14.7272 27.8314 15.0346 27.8327 15.3421C27.834 15.6316 27.8344 15.9211 27.8341 16.2105C27.8342 16.3167 27.8345 16.4228 27.8352 16.529C27.8362 16.6742 27.836 16.8193 27.8354 16.9645C27.8356 17.0457 27.8358 17.1269 27.836 17.2105C27.8089 17.4767 27.75 17.6386 27.6254 17.8746C27.3992 18.0254 27.2965 18.0154 27.0272 18.0158C26.9851 18.0161 26.943 18.0163 26.8996 18.0166C26.7574 18.0172 26.6153 18.017 26.4731 18.0167C26.3706 18.017 26.268 18.0173 26.1655 18.0177C25.8829 18.0186 25.6003 18.0187 25.3177 18.0187C25.0133 18.0188 24.7088 18.0196 24.4044 18.0203C23.7383 18.0217 23.0722 18.0222 22.4062 18.0226C21.9905 18.0228 21.5749 18.0232 21.1592 18.0236C20.0091 18.0248 18.8589 18.0259 17.7088 18.026C17.6352 18.0261 17.5615 18.0261 17.4856 18.0261C17.3363 18.0261 17.1871 18.0261 17.0378 18.0261C16.9636 18.0262 16.8895 18.0262 16.8132 18.0262C16.7019 18.0262 16.7019 18.0262 16.5883 18.0262C15.3854 18.0264 14.1824 18.0281 12.9794 18.0305C11.7453 18.0328 10.5111 18.0341 9.27687 18.0341C8.58356 18.0341 7.89026 18.0346 7.19696 18.0364C6.60671 18.038 6.01648 18.0384 5.42624 18.0375C5.12493 18.037 4.82364 18.0371 4.52234 18.0385C4.24668 18.0398 3.97106 18.0397 3.69541 18.0383C3.59552 18.0381 3.49562 18.0384 3.39574 18.0393C3.26021 18.0405 3.12483 18.0397 2.98931 18.0384C2.91397 18.0384 2.83862 18.0385 2.76099 18.0385C2.50604 17.9884 2.4132 17.8847 2.2504 17.6871C2.15534 17.4672 2.18022 17.2235 2.18038 16.987C2.18033 16.9417 2.18028 16.8963 2.18022 16.8495C2.18012 16.6974 2.18046 16.5453 2.1808 16.3932C2.18082 16.2842 2.18081 16.1752 2.18078 16.0661C2.18076 15.7701 2.18113 15.474 2.18156 15.1779C2.18195 14.8685 2.18199 14.5591 2.18206 14.2498C2.18226 13.6638 2.18277 13.0779 2.1834 12.492C2.1841 11.825 2.18444 11.158 2.18475 10.491C2.18541 9.11886 2.18651 7.74672 2.1879 6.37459C2.09182 6.37785 2.09182 6.37785 1.99381 6.38118C1.90877 6.38294 1.82372 6.38464 1.73868 6.38631C1.69658 6.38788 1.65449 6.38945 1.61112 6.39107C1.33108 6.39516 1.16108 6.35739 0.937899 6.18709C0.776489 5.97187 0.795709 5.76089 0.812899 5.49959C0.875716 5.34266 0.939433 5.20563 1.01993 5.05867C1.06622 4.97026 1.11244 4.88182 1.1586 4.79335C1.19607 4.72247 1.19607 4.72247 1.23429 4.65017C1.37564 4.3794 1.50968 4.10499 1.64493 3.83113C1.70365 3.71303 1.7624 3.59494 1.8212 3.47688C1.911 3.29652 2.00072 3.11612 2.09018 2.93559C3.21618 0.663989 3.21618 0.663989 3.7607 0.662967ZM4.1254 1.93709C3.58723 2.95844 3.58723 2.95844 3.05271 3.98169C3.01161 4.06068 2.97041 4.13962 2.92911 4.2185C2.86783 4.33559 2.80688 4.45285 2.746 4.57014C2.71071 4.63786 2.67541 4.70559 2.63904 4.77536C2.55402 4.92614 2.55402 4.92614 2.5629 5.06209C5.80102 5.06209 9.03915 5.06209 12.3754 5.06209C12.6229 4.56709 12.8704 4.07209 13.1254 3.56209C13.5117 2.82858 13.5117 2.82858 13.6836 2.50946C13.7763 2.32236 13.8557 2.12897 13.9379 1.93709C10.6998 1.93709 7.46165 1.93709 4.1254 1.93709ZM16.0629 1.93709C16.3964 2.64117 16.7285 3.33823 17.0902 4.02693C17.1657 4.17138 17.2411 4.31582 17.3166 4.46028C17.349 4.52211 17.3814 4.58394 17.4148 4.64764C17.4864 4.7851 17.5561 4.92349 17.6254 5.06209C20.8635 5.06209 24.1016 5.06209 27.4379 5.06209C27.3341 4.74644 27.3341 4.74644 27.2004 4.45264C27.1789 4.41068 27.1574 4.36873 27.1352 4.32551C27.1008 4.25929 27.1008 4.25929 27.0656 4.19173C27.0415 4.14504 27.0175 4.09835 26.9927 4.05024C26.9419 3.9518 26.891 3.85341 26.84 3.75509C26.7628 3.60631 26.6859 3.45732 26.6092 3.3083C26.5595 3.21214 26.5098 3.11599 26.4601 3.01985C26.4262 2.9542 26.4262 2.9542 26.3916 2.88722C26.2252 2.56684 26.0509 2.253 25.8754 1.93709C22.6373 1.93709 19.3991 1.93709 16.0629 1.93709ZM14.2504 4.18709C14.2252 4.23846 14.2 4.28984 14.174 4.34277C14.0798 4.53454 13.9851 4.72612 13.8903 4.9176C13.8494 5.00028 13.8087 5.08302 13.7681 5.16583C13.7095 5.28532 13.6504 5.40456 13.5912 5.52376C13.5559 5.59544 13.5205 5.66711 13.4841 5.74097C13.2196 6.21819 13.2196 6.21819 12.9379 6.31209C12.8111 6.31853 12.6841 6.32124 12.5571 6.32198C12.4378 6.32289 12.4378 6.32289 12.3162 6.32383C12.2275 6.3242 12.1389 6.32456 12.0503 6.32492C11.9558 6.32553 11.8613 6.32616 11.7667 6.32682C11.5133 6.32851 11.2599 6.32983 11.0065 6.33108C10.7689 6.33231 10.5312 6.33386 10.2935 6.33539C9.59815 6.33968 8.90279 6.34343 8.20743 6.34724C5.87745 6.36078 5.87745 6.36078 3.5004 6.37459C3.5004 9.79834 3.5004 13.2221 3.5004 16.7496C7.06852 16.7496 10.6366 16.7496 14.3129 16.7496C14.3335 15.6152 14.3541 14.4808 14.3754 13.3121C14.5004 12.8746 14.5004 12.8746 14.6293 12.7496C14.8897 12.6609 15.1116 12.6747 15.3754 12.7496C15.5763 12.9254 15.5703 13.0368 15.6254 13.3121C15.646 14.4465 15.6666 15.5808 15.6879 16.7496C19.256 16.7496 22.8241 16.7496 26.5004 16.7496C26.5004 13.3258 26.5004 9.90209 26.5004 6.37459C23.4086 6.36145 23.4086 6.36145 20.3168 6.35034C19.7191 6.34722 19.7191 6.34722 19.4394 6.34552C19.2439 6.3444 19.0483 6.3438 18.8527 6.34352C18.6033 6.34314 18.3539 6.34187 18.1045 6.33995C18.0129 6.3394 17.9214 6.33916 17.8298 6.33927C17.7061 6.33938 17.5824 6.33822 17.4588 6.33701C17.3548 6.33658 17.3548 6.33658 17.2487 6.33613C17.0378 6.30884 16.9208 6.24984 16.7504 6.12459C16.65 5.97928 16.65 5.97928 16.5646 5.8094C16.5329 5.74741 16.5012 5.68541 16.4685 5.62153C16.4365 5.5568 16.4045 5.49206 16.3715 5.42537C16.3392 5.36184 16.307 5.29831 16.2737 5.23286C16.1817 5.05136 16.0909 4.86933 16.0004 4.68709C15.951 4.58836 15.9016 4.48964 15.8522 4.39094C15.8186 4.32367 15.785 4.2564 15.7504 4.18709C15.7298 4.18709 15.7091 4.18709 15.6879 4.18709C15.6875 4.22996 15.6872 4.27284 15.6868 4.31702C15.6828 4.76417 15.6775 5.21129 15.6715 5.65842C15.6693 5.82519 15.6677 5.99194 15.6662 6.15872C15.6641 6.39875 15.6609 6.63873 15.6574 6.87874C15.657 6.95304 15.6566 7.02734 15.6562 7.10389C15.6494 7.48864 15.635 7.7892 15.4379 8.12459C15.2081 8.27779 15.0173 8.3011 14.7504 8.24959C14.5304 8.0811 14.423 7.95705 14.3754 7.68709C14.3683 7.57067 14.3644 7.45404 14.3626 7.33742C14.3613 7.26736 14.3601 7.19731 14.3588 7.12513C14.3572 7.01223 14.3572 7.01223 14.3556 6.89705C14.3543 6.81972 14.353 6.74238 14.3517 6.66271C14.3483 6.45763 14.3452 6.25254 14.3421 6.04745C14.339 5.83797 14.3355 5.6285 14.3321 5.41902C14.3254 5.00838 14.319 4.59774 14.3129 4.18709C14.2923 4.18709 14.2716 4.18709 14.2504 4.18709Z" fill="#9E9E9E"/>
<path d="M6.20022 13.3004C6.32258 13.2989 6.32258 13.2989 6.4474 13.2973C6.5369 13.2966 6.6264 13.2959 6.7159 13.2953C6.7609 13.295 6.8059 13.2947 6.85227 13.2943C7.09051 13.2926 7.32874 13.2914 7.56698 13.2905C7.81289 13.2895 8.05875 13.2867 8.30464 13.2835C8.49386 13.2814 8.68307 13.2807 8.8723 13.2803C8.96293 13.2799 9.05356 13.279 9.14418 13.2775C9.27116 13.2755 9.39818 13.2757 9.52518 13.2759C9.63349 13.2752 9.63349 13.2752 9.74399 13.2744C9.99602 13.3239 10.0882 13.4303 10.2498 13.6249C10.3588 13.8428 10.3038 14.0809 10.2498 14.3124C10.1095 14.4996 10.0343 14.5509 9.81233 14.6249C9.68844 14.6314 9.56435 14.6342 9.44029 14.635C9.36373 14.6356 9.28718 14.6362 9.2083 14.6368C9.12465 14.6371 9.041 14.6374 8.95735 14.6376C8.87149 14.638 8.78563 14.6383 8.69976 14.6387C8.51977 14.6393 8.33977 14.6397 8.15977 14.6399C7.9295 14.6403 7.69926 14.6418 7.46899 14.6436C7.29162 14.6447 7.11426 14.645 6.93688 14.6451C6.85201 14.6453 6.76714 14.6458 6.68227 14.6466C6.56337 14.6477 6.44445 14.6475 6.32554 14.6472C6.25797 14.6474 6.19039 14.6476 6.12076 14.6479C5.86056 14.6153 5.69785 14.5079 5.51155 14.328C5.4028 14.122 5.40958 13.9799 5.43733 13.7499C5.65487 13.3583 5.76595 13.3052 6.20022 13.3004Z" fill="#9E9E9E"/>
<path d="M15.1876 9.81208C15.5363 10.0094 15.5363 10.0094 15.6251 10.1871C15.6598 10.4766 15.6649 10.6859 15.5079 10.9371C15.3033 11.1296 15.1588 11.1454 14.8776 11.1429C14.6794 11.1144 14.5739 11.015 14.4376 10.8746C14.3291 10.6575 14.3375 10.4238 14.3751 10.1871C14.6197 9.87808 14.7957 9.77439 15.1876 9.81208Z" fill="#9E9E9E"/>
</svg>
